<?xml version="1.0" standalone="no"?>
<!DOCTYPE svg PUBLIC "-//W3C//DTD SVG 20010904//EN"
 "http://www.w3.org/TR/2001/REC-SVG-20010904/DTD/svg10.dtd">
<svg version="1.0" xmlns="http://www.w3.org/2000/svg"
 width="473.000000pt" height="473.000000pt" viewBox="0 0 473.000000 473.000000"
 preserveAspectRatio="xMidYMid meet">


<g transform="translate(0.000000,473.000000) scale(0.100000,-0.100000)"
fill="#FFFFFF" stroke="none">
<path d="M300 300 L 300 5000 L 5000 5000 L 5000 300 z"/>
</g>

<g transform="translate(0.000000,473.000000) scale(0.100000,-0.100000)"
fill="#2DC100" stroke="none">

<path d="M655 4710 c-100 -26 -152 -46 -215 -82 -213 -120 -365 -319 -420
-552 -20 -82 -20 -118 -18 -1733 3 -1838 -3 -1680 73 -1840 113 -240 302 -400
562 -475 l78 -23 1650 0 1650 0 90 28 c246 77 428 231 535 452 93 192 85 21
85 1880 l0 1640 -23 85 c-77 289 -290 511 -587 611 l-70 24 -1660 2 c-1596 2
-1663 1 -1730 -17z m1972 -755 c881 -115 1515 -767 1444 -1484 -15 -147 -49
-261 -121 -406 -72 -145 -155 -258 -304 -412 -240 -250 -648 -562 -1053 -806
-228 -138 -321 -174 -368 -143 -30 20 -32 51 -10 176 8 47 15 118 15 158 0 69
-2 76 -29 101 -35 33 -91 50 -255 80 -66 13 -174 40 -240 62 -550 180 -948
582 -1049 1058 -24 116 -28 319 -8 431 108 602 687 1084 1422 1184 143 19 411
20 556 1z"/>
<path d="M1212 2938 c-9 -9 -12 -111 -12 -400 0 -373 1 -388 19 -398 26 -14
486 -14 512 0 16 9 19 22 19 83 0 44 -5 78 -12 85 -8 8 -63 12 -180 12 l-168
0 0 303 c0 222 -3 306 -12 315 -16 16 -150 16 -166 0z"/>
<path d="M1862 2938 c-9 -9 -12 -110 -12 -394 0 -441 -6 -414 91 -414 108 0
99 -36 99 408 0 289 -3 391 -12 400 -16 16 -150 16 -166 0z"/>
<path d="M2173 2943 c-10 -4 -13 -93 -13 -398 0 -448 -7 -415 87 -415 100 0
92 -20 95 248 l3 236 169 -230 c93 -126 176 -235 184 -241 19 -16 126 -17 153
-3 18 10 19 25 19 398 0 289 -3 391 -12 400 -16 16 -154 16 -165 0 -4 -7 -10
-113 -13 -236 l-5 -223 -174 236 -173 235 -72 -1 c-39 0 -77 -3 -83 -6z"/>
<path d="M3003 2943 c-10 -4 -13 -93 -13 -398 0 -380 1 -395 19 -405 12 -6
113 -10 260 -10 280 0 271 -3 271 91 0 102 6 99 -196 99 l-175 0 3 63 3 62
170 3 c145 2 172 5 183 19 13 18 16 131 4 150 -6 9 -58 13 -182 15 l-175 3 -3
63 -3 62 170 0 c201 0 201 0 201 91 0 105 17 99 -273 98 -139 0 -258 -3 -264
-6z"/>
</g>



</svg>
